<svg xmlns="http://www.w3.org/2000/svg" width="127.7" height="96.9" viewBox="0 0 127.7 96.9">
  <g id="Grupo_3" data-name="Grupo 3" transform="translate(-662 458)">
    <g id="Emoji_u1f682" transform="translate(661.85 -481.56)">
      <path id="Caminho_1" data-name="Caminho 1" d="M64.35,72.12c-3.31,0-5.99-2.23-5.99-4.98V53.22c0-2.74,2.68-4.97,5.99-4.97s5.99,2.22,5.99,4.97V67.14C70.35,69.88,67.66,72.12,64.35,72.12Z" fill="#ed6c30"/>
      <path id="Caminho_2" data-name="Caminho 2" d="M49.29,75.75c-3.31,0-5.98-2.23-5.98-4.97V56.87c0-2.75,2.67-4.98,5.98-4.98s6,2.22,6,4.98V70.79C55.28,73.52,52.59,75.75,49.29,75.75Z" fill="#ed6c30"/>
      <rect id="Retângulo_1" data-name="Retângulo 1" width="95.41" height="15.91" transform="translate(26.44 95.78)" fill="#2f2f2f"/>
      <rect id="Retângulo_2" data-name="Retângulo 2" width="91.81" height="37.41" transform="translate(13.36 63.23)" fill="#ed6c30"/>
      <rect id="Retângulo_3" data-name="Retângulo 3" width="43.92" height="61.06" transform="translate(77.94 39.58)" fill="#ed6c30"/>
      <g id="Grupo_1" data-name="Grupo 1">
        <path id="Caminho_3" data-name="Caminho 3" d="M35.04,63.24c4.26,0,7.72,8.38,7.72,18.71s-3.46,18.7-7.72,18.7-7.73-8.37-7.73-18.7S30.78,63.24,35.04,63.24Z" fill="#2f2f2f"/>
        <path id="Caminho_4" data-name="Caminho 4" d="M35.04,101.69c-4.92,0-8.77-8.67-8.77-19.74s3.85-19.74,8.77-19.74,8.76,8.67,8.76,19.74S39.95,101.69,35.04,101.69Zm0-37.41c-3.16,0-6.69,7.26-6.69,17.67s3.53,17.66,6.69,17.66,6.68-7.25,6.68-17.66S38.2,64.28,35.04,64.28Z" fill="#fcc21b"/>
      </g>
      <rect id="Retângulo_4" data-name="Retângulo 4" width="21.78" height="37.93" transform="translate(13.79 63.21)" fill="#2f2f2f"/>
      <rect id="Retângulo_5" data-name="Retângulo 5" width="55.89" height="6.93" transform="translate(71.96 32.66)" fill="#2f2f2f"/>
      <path id="Caminho_5" data-name="Caminho 5" d="M35.44,63.23H20.92l-9.05-29.3H44.49Z" fill="#2f2f2f"/>
      <path id="Caminho_6" data-name="Caminho 6" d="M39.84,23.56H16.31L11.87,33.93H44.49Z" fill="#2f2f2f"/>
      <path id="Caminho_7" data-name="Caminho 7" d="M.15,120.19H28.67V100.64H13.36Z" fill="#2f2f2f"/>
      <path id="Caminho_8" data-name="Caminho 8" d="M116.51,45.55a2.8,2.8,0,0,0-2.81-2.8H101.19a2.821,2.821,0,0,0-2.83,2.8V67.19a2.815,2.815,0,0,0,2.83,2.8H113.7a2.791,2.791,0,0,0,2.81-2.8Z" fill="#fff"/>
      <rect id="Retângulo_6" data-name="Retângulo 6" width="28.52" height="5.93" transform="translate(0.15 114.26)" fill="#2f2f2f"/>
      <path id="Caminho_9" data-name="Caminho 9" d="M82.79,105.02A15.435,15.435,0,1,1,67.37,89.58,15.432,15.432,0,0,1,82.79,105.02Z" fill="#78a3ad"/>
      <path id="Caminho_10" data-name="Caminho 10" d="M76.25,105.02a8.9,8.9,0,1,1-8.89-8.89A8.9,8.9,0,0,1,76.25,105.02Z" fill="#2f2f2f"/>
      <path id="Caminho_11" data-name="Caminho 11" d="M113.68,105.02A15.44,15.44,0,1,1,98.25,89.58,15.434,15.434,0,0,1,113.68,105.02Z" fill="#78a3ad"/>
      <path id="Caminho_12" data-name="Caminho 12" d="M107.13,105.02a8.9,8.9,0,1,1-8.9-8.89A8.9,8.9,0,0,1,107.13,105.02Z" fill="#2f2f2f"/>
      <path id="Caminho_13" data-name="Caminho 13" d="M70.04,104.25a2.588,2.588,0,0,1-2.58-2.59h0a2.586,2.586,0,0,1,2.58-2.58H95.58a2.571,2.571,0,0,1,2.57,2.58h0a2.58,2.58,0,0,1-2.57,2.59Z" fill="#fff"/>
      <path id="Caminho_14" data-name="Caminho 14" d="M50.47,109.57A10.9,10.9,0,1,1,39.58,98.69,10.889,10.889,0,0,1,50.47,109.57Z" fill="#78a3ad"/>
      <rect id="Retângulo_7" data-name="Retângulo 7" width="12.01" height="7.69" transform="translate(58.33 54.03)" fill="#fcc21b"/>
      <rect id="Retângulo_8" data-name="Retângulo 8" width="11.9" height="5.03" transform="translate(43.36 56.8)" fill="#fcc21b"/>
      <g id="Grupo_2" data-name="Grupo 2">
        <path id="Caminho_15" data-name="Caminho 15" d="M13.36,63.23c4.27,0,7.72,8.37,7.72,18.71s-3.45,18.7-7.72,18.7-7.71-8.38-7.71-18.7S9.11,63.23,13.36,63.23Z" fill="#2f2f2f"/>
        <path id="Caminho_16" data-name="Caminho 16" d="M13.36,101.68c-4.91,0-8.75-8.68-8.75-19.74S8.46,62.2,13.36,62.2c4.92,0,8.76,8.67,8.76,19.74S18.28,101.68,13.36,101.68Zm0-37.41c-3.15,0-6.67,7.25-6.67,17.67S10.21,99.6,13.36,99.6s6.68-7.25,6.68-17.66S16.53,64.27,13.36,64.27Z" fill="#fcc21b"/>
      </g>
      <rect id="Retângulo_9" data-name="Retângulo 9" width="35.18" height="2.63" transform="translate(10.59 32.69)" fill="#2f2f2f"/>
    </g>
  </g>
</svg>
